HIERARCHY
ROOT SpineBase
{
  OFFSET 0.000000 0.000000 0.000000
  CHANNELS 6 Xposition Yposition Zposition Zrotation Xrotation Yrotation
  JOINT SpineMid
  {
    OFFSET 0.000000 33.667571 0.000000
    CHANNELS 3 Zrotation Xrotation Yrotation
    JOINT SpineShoulder
    {
      OFFSET 0.113568 24.858057 -0.676911
      CHANNELS 3 Zrotation Xrotation Yrotation
      JOINT Neck
      {
        OFFSET 0.129219 8.171616 -0.567949
        CHANNELS 3 Zrotation Xrotation Yrotation
        JOINT Head
        {
          OFFSET 3.255900 9.835427 5.211254
          CHANNELS 3 Zrotation Xrotation Yrotation
          End Site
          {
            OFFSET 0 0 0
          }
        }
      }
      JOINT ShoulderLeft
      {
        OFFSET -1.378394 -6.222294 -13.547325
        CHANNELS 3 Zrotation Xrotation Yrotation
        JOINT ElbowLeft
        {
          OFFSET 6.304056 -24.956023 -5.863181
          CHANNELS 3 Zrotation Xrotation Yrotation
          JOINT WristLeft
          {
            OFFSET 5.631588 -21.057097 4.907449
            CHANNELS 3 Zrotation Xrotation Yrotation
            JOINT HandLeft
            {
              OFFSET -1.134400 -7.635754 4.612405
              CHANNELS 3 Zrotation Xrotation Yrotation
              JOINT HandTipLeft
              {
                OFFSET 2.068983 -7.547681 1.427198
                CHANNELS 3 Zrotation Xrotation Yrotation
                End Site
                {
                  OFFSET 0 0 0
                }
              }
              JOINT ThumbLeft
              {
                OFFSET -4.406460 -1.224811 -3.179818
                CHANNELS 3 Zrotation Xrotation Yrotation
                End Site
                {
                  OFFSET 0 0 0
                }
              }
            }
          }
        }
      }
      JOINT ShoulderRight
      {
        OFFSET -0.558637 0.273376 -14.561967
        CHANNELS 3 Zrotation Xrotation Yrotation
        JOINT ElbowRight
        {
          OFFSET 4.500679 -25.654608 -0.645700
          CHANNELS 3 Zrotation Xrotation Yrotation
          JOINT WristRight
          {
            OFFSET 3.255080 -25.078602 3.964682
            CHANNELS 3 Zrotation Xrotation Yrotation
            JOINT HandRight
            {
              OFFSET 0.248390 -27.069828 6.283924
              CHANNELS 3 Zrotation Xrotation Yrotation
              JOINT HandTipRight
              {
                OFFSET 0.066584 -5.292567 0.338210
                CHANNELS 3 Zrotation Xrotation Yrotation
                End Site
                {
                  OFFSET 0 0 0
                }
              }
              JOINT ThumbRight
              {
                OFFSET -1.866998 0.304886 -4.480785
                CHANNELS 3 Zrotation Xrotation Yrotation
                End Site
                {
                  OFFSET 0 0 0
                }
              }
            }
          }
        }
      }
    }
  }
  JOINT HipLeft
  {
    OFFSET -1.431913 0.530625 -9.346536
    CHANNELS 3 Zrotation Xrotation Yrotation
    JOINT KneeLeft
    {
      OFFSET -0.941266 -36.375067 7.398883
      CHANNELS 3 Zrotation Xrotation Yrotation
      JOINT AnkleLeft
      {
        OFFSET -12.467313 -32.673327 2.917601
        CHANNELS 3 Zrotation Xrotation Yrotation
        JOINT FootLeft
        {
          OFFSET -2.418156 -6.097446 -3.328917
          CHANNELS 3 Zrotation Xrotation Yrotation
          End Site
          {
            OFFSET 0 0 0
          }
        }
      }
    }
  }
  JOINT HipRight
  {
    OFFSET 1.780340 0.868701 1.740785
    CHANNELS 3 Zrotation Xrotation Yrotation
    JOINT KneeRight
    {
      OFFSET -12.641721 -36.542206 8.595246
      CHANNELS 3 Zrotation Xrotation Yrotation
      JOINT AnkleRight
      {
        OFFSET 14.105273 -36.391355 0.979302
        CHANNELS 3 Zrotation Xrotation Yrotation
        JOINT FootRight
        {
          OFFSET -12.838004 -0.813730 -5.325938
          CHANNELS 3 Zrotation Xrotation Yrotation
          End Site
          {
            OFFSET 0 0 0
          }
        }
      }
    }
  }
}
MOTION
Frames: 9
Frame Time: 0.033333
-15.654104 74.615215 321.558717 -0.000000 0.000000 -73.842478 -0.000000 0.000000 73.842478 -0.000000 0.000000 0.000000 -0.000000 0.000000 0.000000 0.000000 0.000000 0.000000 -0.000000 0.000000 0.000000 -0.000000 0.000000 0.000000 -0.000000 0.000000 0.000000 -0.000000 0.000000 0.000000 0.000000 0.000000 0.000000 0.000000 0.000000 0.000000 -0.000000 0.000000 0.000000 -0.000000 0.000000 0.000000 -0.000000 0.000000 0.000000 -0.000000 0.000000 0.000000 0.000000 0.000000 0.000000 0.000000 0.000000 0.000000 -0.000000 0.000000 73.842478 -0.000000 0.000000 0.000000 -0.000000 0.000000 0.000000 0.000000 0.000000 0.000000 -0.000000 0.000000 73.842478 -0.000000 0.000000 0.000000 -0.000000 0.000000 0.000000 0.000000 0.000000 0.000000
-15.546876 74.680855 321.679897 0.061608 0.082424 -73.986811 0.062231 -0.081955 73.986811 -0.000000 0.000000 0.000000 -0.000000 0.000000 0.000000 0.000000 0.000000 0.000000 -0.000000 0.000000 0.000000 0.215229 -1.254628 -0.282176 -1.652673 3.628220 -0.875174 -2.586756 -6.317309 -0.905429 0.000000 0.000000 0.000000 0.000000 0.000000 0.000000 -0.000000 0.000000 0.000000 -0.000000 0.000000 0.000000 -0.000000 0.000000 0.000000 -0.121675 -1.867656 -0.033223 0.000000 0.000000 0.000000 0.000000 0.000000 0.000000 0.062231 -0.081955 73.986811 0.302043 -0.793706 0.332054 11.798751 -8.001013 -2.979404 0.000000 0.000000 0.000000 0.062231 -0.081955 73.986811 -0.533557 -0.592585 -0.247217 1.305286 0.217119 1.329392 0.000000 0.000000 0.000000
-15.451916 74.739713 321.766240 0.096695 0.128754 -74.161363 0.097475 -0.128164 74.161363 -0.000000 0.000000 0.000000 -0.000000 0.000000 0.000000 0.000000 0.000000 0.000000 -0.696157 -0.570793 0.015946 1.052243 -1.541930 -0.499264 -2.770907 6.461669 -1.445233 -4.953605 -11.238553 -2.118001 0.000000 0.000000 0.000000 0.000000 0.000000 0.000000 -0.000000 0.000000 0.000000 -0.000000 0.000000 0.000000 -0.000000 0.000000 0.000000 -0.060407 -3.856701 -0.054316 0.000000 0.000000 0.000000 0.000000 0.000000 0.000000 0.097475 -0.128164 74.161363 0.644003 -1.481603 0.631827 22.953330 -16.397997 -4.248716 0.000000 0.000000 0.000000 0.097475 -0.128164 74.161363 -0.819294 -0.935864 -0.392487 2.647216 0.077811 3.000458 0.000000 0.000000 0.000000
-15.369225 74.791788 321.817744 0.105226 0.138946 -74.368959 0.105455 -0.138772 74.368960 -0.000000 0.000000 0.000000 -0.000000 0.000000 0.000000 0.000000 0.000000 0.000000 -0.861203 -0.747418 0.007940 1.301657 -1.901415 -0.616508 -3.314119 8.485313 -1.722935 -7.173939 -14.623028 -3.406110 0.000000 0.000000 0.000000 0.000000 0.000000 0.000000 -0.000000 0.000000 0.000000 -0.000000 0.000000 0.000000 -0.938576 0.045880 -0.217123 1.151005 -5.920580 0.167174 0.000000 0.000000 0.000000 0.000000 0.000000 0.000000 0.105455 -0.138772 74.368960 1.023671 -2.057598 0.896608 32.105479 -23.455555 -3.988157 0.000000 0.000000 0.000000 0.564021 -1.122026 74.424545 -0.031658 -0.324426 -0.476501 4.074853 -0.415699 5.094078 0.000000 0.000000 0.000000
-15.298803 74.837081 321.834410 0.087171 0.112956 -74.612977 0.085778 -0.114018 74.612977 -0.000000 0.000000 0.000000 -0.400088 -0.693429 0.440019 0.000000 0.000000 0.000000 -0.904108 -0.851364 -0.009401 1.381314 -2.054162 -0.660337 -3.249384 9.674262 -1.713751 -9.278241 -16.409748 -4.584511 0.000000 0.000000 0.000000 0.000000 0.000000 0.000000 -0.000000 0.000000 0.000000 -0.000000 0.000000 0.000000 -1.144540 0.336247 -0.259456 1.801921 -8.169083 0.255653 0.000000 0.000000 0.000000 0.000000 0.000000 0.000000 0.880107 -0.685412 74.573139 1.779131 -1.598250 1.143299 38.749140 -28.531127 -2.969238 0.000000 0.000000 0.000000 0.787299 -1.787837 74.676008 0.787456 0.240655 -0.416345 5.648600 -1.248562 7.712081 0.000000 0.000000 0.000000
-15.240649 74.875592 321.816238 0.042501 0.050746 -74.897462 0.037920 -0.054255 74.897462 -0.000000 0.000000 0.000000 -0.408398 -0.823210 0.487250 0.000000 0.000000 0.000000 -0.824811 -0.882633 -0.035661 1.294800 -2.018559 -0.634609 -2.555046 10.003132 -1.411196 -11.251334 -16.568246 -5.508434 0.000000 0.000000 0.000000 0.000000 0.000000 0.000000 0.457075 -0.672241 -0.126688 -0.458592 0.671207 0.132055 -1.314515 0.830989 -0.288519 2.575190 -10.475557 0.386306 0.000000 0.000000 0.000000 0.000000 0.000000 0.000000 0.821405 -0.977677 74.790700 2.575706 -1.853917 1.385368 42.966976 -31.814540 -1.839820 0.000000 0.000000 0.000000 1.033697 -2.600307 74.964729 2.200821 1.622018 -0.075354 7.253129 -2.887135 10.846725 0.000000 0.000000 0.000000
-15.115245 74.886474 321.849632 0.068903 -0.107550 -75.153159 -0.121614 -0.039044 75.153182 -0.000000 0.000000 0.000000 -0.492290 -1.128422 0.631946 0.000000 0.000000 0.000000 -0.665145 -0.870835 -0.068991 1.233145 -1.180544 -0.354218 -0.778635 7.083572 -0.426388 -11.411126 -12.490568 -5.206008 0.000000 0.000000 0.000000 0.000000 0.000000 0.000000 0.853171 -1.328694 -0.244440 -0.859061 1.324894 0.264266 -1.416797 2.113243 -0.284634 3.304486 -13.559771 0.562863 0.000000 0.000000 0.000000 0.000000 0.000000 0.000000 0.481591 -1.504718 74.929810 3.562331 -1.942950 1.565229 49.512547 -36.716010 1.505316 0.000000 0.000000 0.000000 1.105211 -3.961054 75.136215 4.690575 2.919571 0.253129 9.041851 -4.302481 17.888494 0.000000 0.000000 0.000000
-15.094618 74.907877 321.744314 -0.055494 -0.235282 -75.667838 -0.214222 0.112009 75.667933 -0.000000 0.000000 0.000000 -0.413024 -1.301136 0.648012 0.000000 0.000000 0.000000 -0.327176 -0.765964 -0.119083 0.714186 -0.604825 -0.161896 1.752393 5.485211 0.863113 -12.580186 -7.498786 -4.837464 0.000000 0.000000 0.000000 0.000000 0.000000 0.000000 1.303232 -2.066465 -0.371290 -0.493887 1.511031 0.450559 -2.326029 4.829821 -0.296559 4.420427 -18.505270 0.936601 0.000000 0.000000 0.000000 0.000000 0.000000 0.000000 0.261388 -1.909528 75.326509 4.601806 -1.865714 1.699176 41.859226 -32.659359 -0.735594 0.000000 0.000000 0.000000 1.429036 -5.268345 75.623465 7.114841 4.770089 0.612906 12.115906 -6.079907 23.251708 0.000000 0.000000 0.000000
-15.199393 74.975175 321.515983 -0.316656 -0.353037 -80.702337 0.431412 -0.039990 80.696014 0.417789 -0.086424 0.024352 -0.407572 -0.117668 0.455598 0.000000 0.000000 0.000000 -0.131061 0.871743 -0.021908 -0.000000 0.000000 0.000000 5.204788 3.934509 2.449478 -16.525277 -4.591895 -6.184065 0.000000 0.000000 0.000000 0.000000 0.000000 0.000000 2.423673 -1.600059 -0.501925 -1.101737 1.909194 0.655681 -3.764419 9.941373 -0.399400 7.082508 -23.765655 2.085113 0.000000 0.000000 0.000000 0.000000 0.000000 0.000000 0.170729 -2.640933 80.148381 6.258381 -1.816777 1.952797 41.122481 -33.192833 -0.023194 0.000000 0.000000 0.000000 2.227081 -6.302419 80.616529 9.705341 6.566354 0.954301 18.151855 -7.671445 30.835425 0.000000 0.000000 0.000000
